<mxfile host="app.diagrams.net" modified="2021-05-27T12:09:52.017Z" agent="5.0 (Windows NT 10.0; Win64; x64) AppleWebKit/537.36 (KHTML, like Gecko) Chrome/90.0.4430.212 Safari/537.36" etag="834BudB8CiSfFi9wKzdS" version="14.7.2" type="github">
  <diagram id="c0nvDh5sYAMC8LaI1VMU" name="Page-1">
    <mxGraphModel dx="2903" dy="1096" grid="1" gridSize="10" guides="1" tooltips="1" connect="1" arrows="1" fold="1" page="1" pageScale="1" pageWidth="827" pageHeight="1169" math="0" shadow="0">
      <root>
        <mxCell id="0" />
        <mxCell id="1" parent="0" />
        <mxCell id="OlVB1A8E8Q_b--ozMuMu-2" value="Начало" style="rounded=1;whiteSpace=wrap;html=1;" vertex="1" parent="1">
          <mxGeometry x="354" y="20" width="126" height="30" as="geometry" />
        </mxCell>
        <mxCell id="OlVB1A8E8Q_b--ozMuMu-3" value="Получение параметров из формы&lt;br&gt;&lt;i&gt;Period, Type, Hour&lt;/i&gt;" style="rounded=0;whiteSpace=wrap;html=1;" vertex="1" parent="1">
          <mxGeometry x="354" y="80" width="126" height="60" as="geometry" />
        </mxCell>
        <mxCell id="OlVB1A8E8Q_b--ozMuMu-4" value="Выбрана линейная &lt;br&gt;интерполяция?&lt;br&gt;&amp;nbsp;Type = &quot;Type_lin&quot;" style="rhombus;whiteSpace=wrap;html=1;" vertex="1" parent="1">
          <mxGeometry x="320" y="160" width="200" height="80" as="geometry" />
        </mxCell>
        <mxCell id="OlVB1A8E8Q_b--ozMuMu-6" value="Выбран весь период?&amp;nbsp;&lt;br&gt;Period = &quot;All_period&quot;" style="rhombus;whiteSpace=wrap;html=1;" vertex="1" parent="1">
          <mxGeometry x="680" y="350" width="200" height="80" as="geometry" />
        </mxCell>
        <mxCell id="OlVB1A8E8Q_b--ozMuMu-7" value="Выбран весь период?&lt;br&gt;&amp;nbsp;Period = &quot;All_period&quot;" style="rhombus;whiteSpace=wrap;html=1;" vertex="1" parent="1">
          <mxGeometry x="-40" y="350" width="200" height="80" as="geometry" />
        </mxCell>
        <mxCell id="OlVB1A8E8Q_b--ozMuMu-8" value="Выбран шаг - 1 час?&lt;br&gt;Hour = &quot;1_Hour&quot;" style="rhombus;whiteSpace=wrap;html=1;" vertex="1" parent="1">
          <mxGeometry x="-240" y="470" width="160" height="80" as="geometry" />
        </mxCell>
        <mxCell id="OlVB1A8E8Q_b--ozMuMu-9" value="Выбран шаг - 1 час?&lt;br&gt;Hour = &quot;1_Hour&quot;" style="rhombus;whiteSpace=wrap;html=1;" vertex="1" parent="1">
          <mxGeometry x="540" y="470" width="160" height="80" as="geometry" />
        </mxCell>
        <mxCell id="OlVB1A8E8Q_b--ozMuMu-10" value="Выбран шаг - 1 час?&lt;br&gt;Hour = &quot;1_Hour&quot;" style="rhombus;whiteSpace=wrap;html=1;" vertex="1" parent="1">
          <mxGeometry x="819.5" y="930" width="160" height="80" as="geometry" />
        </mxCell>
        <mxCell id="OlVB1A8E8Q_b--ozMuMu-11" value="Выбран шаг - 1 час?&lt;br&gt;Hour = &quot;1_Hour&quot;" style="rhombus;whiteSpace=wrap;html=1;" vertex="1" parent="1">
          <mxGeometry x="-20" y="930" width="160" height="80" as="geometry" />
        </mxCell>
        <mxCell id="OlVB1A8E8Q_b--ozMuMu-18" value="" style="endArrow=none;html=1;entryX=0;entryY=0.5;entryDx=0;entryDy=0;" edge="1" parent="1" target="OlVB1A8E8Q_b--ozMuMu-4">
          <mxGeometry width="50" height="50" relative="1" as="geometry">
            <mxPoint x="60" y="200" as="sourcePoint" />
            <mxPoint x="500" y="340" as="targetPoint" />
          </mxGeometry>
        </mxCell>
        <mxCell id="OlVB1A8E8Q_b--ozMuMu-19" value="" style="endArrow=classic;html=1;" edge="1" parent="1">
          <mxGeometry width="50" height="50" relative="1" as="geometry">
            <mxPoint x="60" y="200" as="sourcePoint" />
            <mxPoint x="60" y="250" as="targetPoint" />
          </mxGeometry>
        </mxCell>
        <mxCell id="OlVB1A8E8Q_b--ozMuMu-20" value="" style="endArrow=none;html=1;entryX=1;entryY=0.5;entryDx=0;entryDy=0;" edge="1" parent="1" target="OlVB1A8E8Q_b--ozMuMu-4">
          <mxGeometry width="50" height="50" relative="1" as="geometry">
            <mxPoint x="780" y="200" as="sourcePoint" />
            <mxPoint x="580" y="200" as="targetPoint" />
          </mxGeometry>
        </mxCell>
        <mxCell id="OlVB1A8E8Q_b--ozMuMu-21" value="" style="endArrow=classic;html=1;" edge="1" parent="1">
          <mxGeometry width="50" height="50" relative="1" as="geometry">
            <mxPoint x="780" y="200" as="sourcePoint" />
            <mxPoint x="780" y="240" as="targetPoint" />
          </mxGeometry>
        </mxCell>
        <mxCell id="OlVB1A8E8Q_b--ozMuMu-24" value="" style="endArrow=none;html=1;entryX=0;entryY=0.5;entryDx=0;entryDy=0;" edge="1" parent="1" target="OlVB1A8E8Q_b--ozMuMu-7">
          <mxGeometry width="50" height="50" relative="1" as="geometry">
            <mxPoint x="-160" y="390" as="sourcePoint" />
            <mxPoint x="180" y="450" as="targetPoint" />
          </mxGeometry>
        </mxCell>
        <mxCell id="OlVB1A8E8Q_b--ozMuMu-25" value="" style="endArrow=none;html=1;" edge="1" parent="1">
          <mxGeometry width="50" height="50" relative="1" as="geometry">
            <mxPoint x="880" y="389.5" as="sourcePoint" />
            <mxPoint x="1060" y="390" as="targetPoint" />
          </mxGeometry>
        </mxCell>
        <mxCell id="OlVB1A8E8Q_b--ozMuMu-26" value="" style="endArrow=none;html=1;entryX=0;entryY=0.5;entryDx=0;entryDy=0;" edge="1" parent="1">
          <mxGeometry width="50" height="50" relative="1" as="geometry">
            <mxPoint x="620" y="390" as="sourcePoint" />
            <mxPoint x="680" y="389.5" as="targetPoint" />
          </mxGeometry>
        </mxCell>
        <mxCell id="OlVB1A8E8Q_b--ozMuMu-27" value="" style="endArrow=none;html=1;" edge="1" parent="1">
          <mxGeometry width="50" height="50" relative="1" as="geometry">
            <mxPoint x="160" y="389.5" as="sourcePoint" />
            <mxPoint x="220" y="390" as="targetPoint" />
          </mxGeometry>
        </mxCell>
        <mxCell id="OlVB1A8E8Q_b--ozMuMu-28" value="" style="endArrow=classic;html=1;entryX=0.5;entryY=0;entryDx=0;entryDy=0;" edge="1" parent="1" target="OlVB1A8E8Q_b--ozMuMu-8">
          <mxGeometry width="50" height="50" relative="1" as="geometry">
            <mxPoint x="-160" y="390" as="sourcePoint" />
            <mxPoint x="380" y="450" as="targetPoint" />
            <Array as="points" />
          </mxGeometry>
        </mxCell>
        <mxCell id="OlVB1A8E8Q_b--ozMuMu-29" value="" style="endArrow=classic;html=1;" edge="1" parent="1">
          <mxGeometry width="50" height="50" relative="1" as="geometry">
            <mxPoint x="1060" y="390" as="sourcePoint" />
            <mxPoint x="1060" y="470" as="targetPoint" />
          </mxGeometry>
        </mxCell>
        <mxCell id="OlVB1A8E8Q_b--ozMuMu-30" value="" style="endArrow=classic;html=1;entryX=0.5;entryY=0;entryDx=0;entryDy=0;" edge="1" parent="1">
          <mxGeometry width="50" height="50" relative="1" as="geometry">
            <mxPoint x="620" y="390" as="sourcePoint" />
            <mxPoint x="620" y="470" as="targetPoint" />
          </mxGeometry>
        </mxCell>
        <mxCell id="OlVB1A8E8Q_b--ozMuMu-31" value="" style="endArrow=classic;html=1;entryX=0.5;entryY=0;entryDx=0;entryDy=0;" edge="1" parent="1">
          <mxGeometry width="50" height="50" relative="1" as="geometry">
            <mxPoint x="221.5" y="390" as="sourcePoint" />
            <mxPoint x="221.5" y="470" as="targetPoint" />
          </mxGeometry>
        </mxCell>
        <mxCell id="OlVB1A8E8Q_b--ozMuMu-32" value="" style="endArrow=classic;html=1;exitX=0.5;exitY=1;exitDx=0;exitDy=0;entryX=0.5;entryY=0;entryDx=0;entryDy=0;" edge="1" parent="1" source="OlVB1A8E8Q_b--ozMuMu-2" target="OlVB1A8E8Q_b--ozMuMu-3">
          <mxGeometry width="50" height="50" relative="1" as="geometry">
            <mxPoint x="480" y="190" as="sourcePoint" />
            <mxPoint x="530" y="140" as="targetPoint" />
          </mxGeometry>
        </mxCell>
        <mxCell id="OlVB1A8E8Q_b--ozMuMu-33" value="" style="endArrow=classic;html=1;entryX=0.5;entryY=0;entryDx=0;entryDy=0;" edge="1" parent="1" target="OlVB1A8E8Q_b--ozMuMu-4">
          <mxGeometry width="50" height="50" relative="1" as="geometry">
            <mxPoint x="420" y="140" as="sourcePoint" />
            <mxPoint x="530" y="140" as="targetPoint" />
          </mxGeometry>
        </mxCell>
        <mxCell id="OlVB1A8E8Q_b--ozMuMu-35" value="Да&lt;span style=&quot;color: rgba(0 , 0 , 0 , 0) ; font-family: monospace ; font-size: 0px&quot;&gt;%3CmxGraphModel%3E%3Croot%3E%3CmxCell%20id%3D%220%22%2F%3E%3CmxCell%20id%3D%221%22%20parent%3D%220%22%2F%3E%3CmxCell%20id%3D%222%22%20value%3D%22%22%20style%3D%22endArrow%3Dclassic%3Bhtml%3D1%3BentryX%3D0.5%3BentryY%3D0%3BentryDx%3D0%3BentryDy%3D0%3B%22%20edge%3D%221%22%20parent%3D%221%22%3E%3CmxGeometry%20width%3D%2250%22%20height%3D%2250%22%20relative%3D%221%22%20as%3D%22geometry%22%3E%3CmxPoint%20x%3D%22-40%22%20y%3D%22280%22%20as%3D%22sourcePoint%22%2F%3E%3CmxPoint%20x%3D%22-40%22%20y%3D%22360%22%20as%3D%22targetPoint%22%2F%3E%3C%2FmxGeometry%3E%3C%2FmxCell%3E%3C%2Froot%3E%3C%2FmxGraphModel%3E&lt;/span&gt;&lt;span style=&quot;color: rgba(0 , 0 , 0 , 0) ; font-family: monospace ; font-size: 0px&quot;&gt;%3CmxGraphModel%3E%3Croot%3E%3CmxCell%20id%3D%220%22%2F%3E%3CmxCell%20id%3D%221%22%20parent%3D%220%22%2F%3E%3CmxCell%20id%3D%222%22%20value%3D%22%22%20style%3D%22endArrow%3Dclassic%3Bhtml%3D1%3BentryX%3D0.5%3BentryY%3D0%3BentryDx%3D0%3BentryDy%3D0%3B%22%20edge%3D%221%22%20parent%3D%221%22%3E%3CmxGeometry%20width%3D%2250%22%20height%3D%2250%22%20relative%3D%221%22%20as%3D%22geometry%22%3E%3CmxPoint%20x%3D%22-40%22%20y%3D%22280%22%20as%3D%22sourcePoint%22%2F%3E%3CmxPoint%20x%3D%22-40%22%20y%3D%22360%22%20as%3D%22targetPoint%22%2F%3E%3C%2FmxGeometry%3E%3C%2FmxCell%3E%3C%2Froot%3E%3C%2FmxGraphModel%3E&lt;/span&gt;" style="text;html=1;strokeColor=none;fillColor=none;align=center;verticalAlign=middle;whiteSpace=wrap;rounded=0;" vertex="1" parent="1">
          <mxGeometry x="270" y="180" width="40" height="20" as="geometry" />
        </mxCell>
        <mxCell id="OlVB1A8E8Q_b--ozMuMu-36" value="Да&lt;span style=&quot;color: rgba(0 , 0 , 0 , 0) ; font-family: monospace ; font-size: 0px&quot;&gt;%3CmxGraphModel%3E%3Croot%3E%3CmxCell%20id%3D%220%22%2F%3E%3CmxCell%20id%3D%221%22%20parent%3D%220%22%2F%3E%3CmxCell%20id%3D%222%22%20value%3D%22%22%20style%3D%22endArrow%3Dclassic%3Bhtml%3D1%3BentryX%3D0.5%3BentryY%3D0%3BentryDx%3D0%3BentryDy%3D0%3B%22%20edge%3D%221%22%20parent%3D%221%22%3E%3CmxGeometry%20width%3D%2250%22%20height%3D%2250%22%20relative%3D%221%22%20as%3D%22geometry%22%3E%3CmxPoint%20x%3D%22-40%22%20y%3D%22280%22%20as%3D%22sourcePoint%22%2F%3E%3CmxPoint%20x%3D%22-40%22%20y%3D%22360%22%20as%3D%22targetPoint%22%2F%3E%3C%2FmxGeometry%3E%3C%2FmxCell%3E%3C%2Froot%3E%3C%2FmxGraphModel%3E&lt;/span&gt;&lt;span style=&quot;color: rgba(0 , 0 , 0 , 0) ; font-family: monospace ; font-size: 0px&quot;&gt;%3CmxGraphModel%3E%3Croot%3E%3CmxCell%20id%3D%220%22%2F%3E%3CmxCell%20id%3D%221%22%20parent%3D%220%22%2F%3E%3CmxCell%20id%3D%222%22%20value%3D%22%22%20style%3D%22endArrow%3Dclassic%3Bhtml%3D1%3BentryX%3D0.5%3BentryY%3D0%3BentryDx%3D0%3BentryDy%3D0%3B%22%20edge%3D%221%22%20parent%3D%221%22%3E%3CmxGeometry%20width%3D%2250%22%20height%3D%2250%22%20relative%3D%221%22%20as%3D%22geometry%22%3E%3CmxPoint%20x%3D%22-40%22%20y%3D%22280%22%20as%3D%22sourcePoint%22%2F%3E%3CmxPoint%20x%3D%22-40%22%20y%3D%22360%22%20as%3D%22targetPoint%22%2F%3E%3C%2FmxGeometry%3E%3C%2FmxCell%3E%3C%2Froot%3E%3C%2FmxGraphModel%3E&lt;/span&gt;" style="text;html=1;strokeColor=none;fillColor=none;align=center;verticalAlign=middle;whiteSpace=wrap;rounded=0;" vertex="1" parent="1">
          <mxGeometry x="-280" y="490" width="40" height="20" as="geometry" />
        </mxCell>
        <mxCell id="OlVB1A8E8Q_b--ozMuMu-37" value="Да&lt;span style=&quot;color: rgba(0 , 0 , 0 , 0) ; font-family: monospace ; font-size: 0px&quot;&gt;%3CmxGraphModel%3E%3Croot%3E%3CmxCell%20id%3D%220%22%2F%3E%3CmxCell%20id%3D%221%22%20parent%3D%220%22%2F%3E%3CmxCell%20id%3D%222%22%20value%3D%22%22%20style%3D%22endArrow%3Dclassic%3Bhtml%3D1%3BentryX%3D0.5%3BentryY%3D0%3BentryDx%3D0%3BentryDy%3D0%3B%22%20edge%3D%221%22%20parent%3D%221%22%3E%3CmxGeometry%20width%3D%2250%22%20height%3D%2250%22%20relative%3D%221%22%20as%3D%22geometry%22%3E%3CmxPoint%20x%3D%22-40%22%20y%3D%22280%22%20as%3D%22sourcePoint%22%2F%3E%3CmxPoint%20x%3D%22-40%22%20y%3D%22360%22%20as%3D%22targetPoint%22%2F%3E%3C%2FmxGeometry%3E%3C%2FmxCell%3E%3C%2Froot%3E%3C%2FmxGraphModel%3E&lt;/span&gt;&lt;span style=&quot;color: rgba(0 , 0 , 0 , 0) ; font-family: monospace ; font-size: 0px&quot;&gt;%3CmxGraphModel%3E%3Croot%3E%3CmxCell%20id%3D%220%22%2F%3E%3CmxCell%20id%3D%221%22%20parent%3D%220%22%2F%3E%3CmxCell%20id%3D%222%22%20value%3D%22%22%20style%3D%22endArrow%3Dclassic%3Bhtml%3D1%3BentryX%3D0.5%3BentryY%3D0%3BentryDx%3D0%3BentryDy%3D0%3B%22%20edge%3D%221%22%20parent%3D%221%22%3E%3CmxGeometry%20width%3D%2250%22%20height%3D%2250%22%20relative%3D%221%22%20as%3D%22geometry%22%3E%3CmxPoint%20x%3D%22-40%22%20y%3D%22280%22%20as%3D%22sourcePoint%22%2F%3E%3CmxPoint%20x%3D%22-40%22%20y%3D%22360%22%20as%3D%22targetPoint%22%2F%3E%3C%2FmxGeometry%3E%3C%2FmxCell%3E%3C%2Froot%3E%3C%2FmxGraphModel%3E&lt;/span&gt;" style="text;html=1;strokeColor=none;fillColor=none;align=center;verticalAlign=middle;whiteSpace=wrap;rounded=0;" vertex="1" parent="1">
          <mxGeometry x="-80" y="370" width="40" height="20" as="geometry" />
        </mxCell>
        <mxCell id="OlVB1A8E8Q_b--ozMuMu-38" value="Нет" style="text;html=1;strokeColor=none;fillColor=none;align=center;verticalAlign=middle;whiteSpace=wrap;rounded=0;" vertex="1" parent="1">
          <mxGeometry x="979.5" y="950" width="40" height="20" as="geometry" />
        </mxCell>
        <mxCell id="OlVB1A8E8Q_b--ozMuMu-39" value="Нет" style="text;html=1;strokeColor=none;fillColor=none;align=center;verticalAlign=middle;whiteSpace=wrap;rounded=0;" vertex="1" parent="1">
          <mxGeometry x="880" y="370" width="40" height="20" as="geometry" />
        </mxCell>
        <mxCell id="OlVB1A8E8Q_b--ozMuMu-40" value="Нет" style="text;html=1;strokeColor=none;fillColor=none;align=center;verticalAlign=middle;whiteSpace=wrap;rounded=0;" vertex="1" parent="1">
          <mxGeometry x="590" y="180" width="40" height="20" as="geometry" />
        </mxCell>
        <mxCell id="OlVB1A8E8Q_b--ozMuMu-41" value="Да&lt;span style=&quot;color: rgba(0 , 0 , 0 , 0) ; font-family: monospace ; font-size: 0px&quot;&gt;%3CmxGraphModel%3E%3Croot%3E%3CmxCell%20id%3D%220%22%2F%3E%3CmxCell%20id%3D%221%22%20parent%3D%220%22%2F%3E%3CmxCell%20id%3D%222%22%20value%3D%22%22%20style%3D%22endArrow%3Dclassic%3Bhtml%3D1%3BentryX%3D0.5%3BentryY%3D0%3BentryDx%3D0%3BentryDy%3D0%3B%22%20edge%3D%221%22%20parent%3D%221%22%3E%3CmxGeometry%20width%3D%2250%22%20height%3D%2250%22%20relative%3D%221%22%20as%3D%22geometry%22%3E%3CmxPoint%20x%3D%22-40%22%20y%3D%22280%22%20as%3D%22sourcePoint%22%2F%3E%3CmxPoint%20x%3D%22-40%22%20y%3D%22360%22%20as%3D%22targetPoint%22%2F%3E%3C%2FmxGeometry%3E%3C%2FmxCell%3E%3C%2Froot%3E%3C%2FmxGraphModel%3E&lt;/span&gt;&lt;span style=&quot;color: rgba(0 , 0 , 0 , 0) ; font-family: monospace ; font-size: 0px&quot;&gt;%3CmxGraphModel%3E%3Croot%3E%3CmxCell%20id%3D%220%22%2F%3E%3CmxCell%20id%3D%221%22%20parent%3D%220%22%2F%3E%3CmxCell%20id%3D%222%22%20value%3D%22%22%20style%3D%22endArrow%3Dclassic%3Bhtml%3D1%3BentryX%3D0.5%3BentryY%3D0%3BentryDx%3D0%3BentryDy%3D0%3B%22%20edge%3D%221%22%20parent%3D%221%22%3E%3CmxGeometry%20width%3D%2250%22%20height%3D%2250%22%20relative%3D%221%22%20as%3D%22geometry%22%3E%3CmxPoint%20x%3D%22-40%22%20y%3D%22280%22%20as%3D%22sourcePoint%22%2F%3E%3CmxPoint%20x%3D%22-40%22%20y%3D%22360%22%20as%3D%22targetPoint%22%2F%3E%3C%2FmxGeometry%3E%3C%2FmxCell%3E%3C%2Froot%3E%3C%2FmxGraphModel%3E&lt;/span&gt;" style="text;html=1;strokeColor=none;fillColor=none;align=center;verticalAlign=middle;whiteSpace=wrap;rounded=0;" vertex="1" parent="1">
          <mxGeometry x="500" y="490" width="40" height="20" as="geometry" />
        </mxCell>
        <mxCell id="OlVB1A8E8Q_b--ozMuMu-42" value="Да&lt;span style=&quot;color: rgba(0 , 0 , 0 , 0) ; font-family: monospace ; font-size: 0px&quot;&gt;%3CmxGraphModel%3E%3Croot%3E%3CmxCell%20id%3D%220%22%2F%3E%3CmxCell%20id%3D%221%22%20parent%3D%220%22%2F%3E%3CmxCell%20id%3D%222%22%20value%3D%22%22%20style%3D%22endArrow%3Dclassic%3Bhtml%3D1%3BentryX%3D0.5%3BentryY%3D0%3BentryDx%3D0%3BentryDy%3D0%3B%22%20edge%3D%221%22%20parent%3D%221%22%3E%3CmxGeometry%20width%3D%2250%22%20height%3D%2250%22%20relative%3D%221%22%20as%3D%22geometry%22%3E%3CmxPoint%20x%3D%22-40%22%20y%3D%22280%22%20as%3D%22sourcePoint%22%2F%3E%3CmxPoint%20x%3D%22-40%22%20y%3D%22360%22%20as%3D%22targetPoint%22%2F%3E%3C%2FmxGeometry%3E%3C%2FmxCell%3E%3C%2Froot%3E%3C%2FmxGraphModel%3E&lt;/span&gt;&lt;span style=&quot;color: rgba(0 , 0 , 0 , 0) ; font-family: monospace ; font-size: 0px&quot;&gt;%3CmxGraphModel%3E%3Croot%3E%3CmxCell%20id%3D%220%22%2F%3E%3CmxCell%20id%3D%221%22%20parent%3D%220%22%2F%3E%3CmxCell%20id%3D%222%22%20value%3D%22%22%20style%3D%22endArrow%3Dclassic%3Bhtml%3D1%3BentryX%3D0.5%3BentryY%3D0%3BentryDx%3D0%3BentryDy%3D0%3B%22%20edge%3D%221%22%20parent%3D%221%22%3E%3CmxGeometry%20width%3D%2250%22%20height%3D%2250%22%20relative%3D%221%22%20as%3D%22geometry%22%3E%3CmxPoint%20x%3D%22-40%22%20y%3D%22280%22%20as%3D%22sourcePoint%22%2F%3E%3CmxPoint%20x%3D%22-40%22%20y%3D%22360%22%20as%3D%22targetPoint%22%2F%3E%3C%2FmxGeometry%3E%3C%2FmxCell%3E%3C%2Froot%3E%3C%2FmxGraphModel%3E&lt;/span&gt;" style="text;html=1;strokeColor=none;fillColor=none;align=center;verticalAlign=middle;whiteSpace=wrap;rounded=0;" vertex="1" parent="1">
          <mxGeometry x="-60" y="950" width="40" height="20" as="geometry" />
        </mxCell>
        <mxCell id="OlVB1A8E8Q_b--ozMuMu-43" value="Нет" style="text;html=1;strokeColor=none;fillColor=none;align=center;verticalAlign=middle;whiteSpace=wrap;rounded=0;" vertex="1" parent="1">
          <mxGeometry x="140" y="950" width="40" height="20" as="geometry" />
        </mxCell>
        <mxCell id="OlVB1A8E8Q_b--ozMuMu-44" value="Нет" style="text;html=1;strokeColor=none;fillColor=none;align=center;verticalAlign=middle;whiteSpace=wrap;rounded=0;" vertex="1" parent="1">
          <mxGeometry x="160" y="370" width="40" height="20" as="geometry" />
        </mxCell>
        <mxCell id="OlVB1A8E8Q_b--ozMuMu-45" value="Да&lt;span style=&quot;color: rgba(0 , 0 , 0 , 0) ; font-family: monospace ; font-size: 0px&quot;&gt;%3CmxGraphModel%3E%3Croot%3E%3CmxCell%20id%3D%220%22%2F%3E%3CmxCell%20id%3D%221%22%20parent%3D%220%22%2F%3E%3CmxCell%20id%3D%222%22%20value%3D%22%22%20style%3D%22endArrow%3Dclassic%3Bhtml%3D1%3BentryX%3D0.5%3BentryY%3D0%3BentryDx%3D0%3BentryDy%3D0%3B%22%20edge%3D%221%22%20parent%3D%221%22%3E%3CmxGeometry%20width%3D%2250%22%20height%3D%2250%22%20relative%3D%221%22%20as%3D%22geometry%22%3E%3CmxPoint%20x%3D%22-40%22%20y%3D%22280%22%20as%3D%22sourcePoint%22%2F%3E%3CmxPoint%20x%3D%22-40%22%20y%3D%22360%22%20as%3D%22targetPoint%22%2F%3E%3C%2FmxGeometry%3E%3C%2FmxCell%3E%3C%2Froot%3E%3C%2FmxGraphModel%3E&lt;/span&gt;&lt;span style=&quot;color: rgba(0 , 0 , 0 , 0) ; font-family: monospace ; font-size: 0px&quot;&gt;%3CmxGraphModel%3E%3Croot%3E%3CmxCell%20id%3D%220%22%2F%3E%3CmxCell%20id%3D%221%22%20parent%3D%220%22%2F%3E%3CmxCell%20id%3D%222%22%20value%3D%22%22%20style%3D%22endArrow%3Dclassic%3Bhtml%3D1%3BentryX%3D0.5%3BentryY%3D0%3BentryDx%3D0%3BentryDy%3D0%3B%22%20edge%3D%221%22%20parent%3D%221%22%3E%3CmxGeometry%20width%3D%2250%22%20height%3D%2250%22%20relative%3D%221%22%20as%3D%22geometry%22%3E%3CmxPoint%20x%3D%22-40%22%20y%3D%22280%22%20as%3D%22sourcePoint%22%2F%3E%3CmxPoint%20x%3D%22-40%22%20y%3D%22360%22%20as%3D%22targetPoint%22%2F%3E%3C%2FmxGeometry%3E%3C%2FmxCell%3E%3C%2Froot%3E%3C%2FmxGraphModel%3E&lt;/span&gt;" style="text;html=1;strokeColor=none;fillColor=none;align=center;verticalAlign=middle;whiteSpace=wrap;rounded=0;" vertex="1" parent="1">
          <mxGeometry x="640" y="370" width="40" height="20" as="geometry" />
        </mxCell>
        <mxCell id="OlVB1A8E8Q_b--ozMuMu-46" value="Да&lt;span style=&quot;color: rgba(0 , 0 , 0 , 0) ; font-family: monospace ; font-size: 0px&quot;&gt;%3CmxGraphModel%3E%3Croot%3E%3CmxCell%20id%3D%220%22%2F%3E%3CmxCell%20id%3D%221%22%20parent%3D%220%22%2F%3E%3CmxCell%20id%3D%222%22%20value%3D%22%22%20style%3D%22endArrow%3Dclassic%3Bhtml%3D1%3BentryX%3D0.5%3BentryY%3D0%3BentryDx%3D0%3BentryDy%3D0%3B%22%20edge%3D%221%22%20parent%3D%221%22%3E%3CmxGeometry%20width%3D%2250%22%20height%3D%2250%22%20relative%3D%221%22%20as%3D%22geometry%22%3E%3CmxPoint%20x%3D%22-40%22%20y%3D%22280%22%20as%3D%22sourcePoint%22%2F%3E%3CmxPoint%20x%3D%22-40%22%20y%3D%22360%22%20as%3D%22targetPoint%22%2F%3E%3C%2FmxGeometry%3E%3C%2FmxCell%3E%3C%2Froot%3E%3C%2FmxGraphModel%3E&lt;/span&gt;&lt;span style=&quot;color: rgba(0 , 0 , 0 , 0) ; font-family: monospace ; font-size: 0px&quot;&gt;%3CmxGraphModel%3E%3Croot%3E%3CmxCell%20id%3D%220%22%2F%3E%3CmxCell%20id%3D%221%22%20parent%3D%220%22%2F%3E%3CmxCell%20id%3D%222%22%20value%3D%22%22%20style%3D%22endArrow%3Dclassic%3Bhtml%3D1%3BentryX%3D0.5%3BentryY%3D0%3BentryDx%3D0%3BentryDy%3D0%3B%22%20edge%3D%221%22%20parent%3D%221%22%3E%3CmxGeometry%20width%3D%2250%22%20height%3D%2250%22%20relative%3D%221%22%20as%3D%22geometry%22%3E%3CmxPoint%20x%3D%22-40%22%20y%3D%22280%22%20as%3D%22sourcePoint%22%2F%3E%3CmxPoint%20x%3D%22-40%22%20y%3D%22360%22%20as%3D%22targetPoint%22%2F%3E%3C%2FmxGeometry%3E%3C%2FmxCell%3E%3C%2Froot%3E%3C%2FmxGraphModel%3E&lt;/span&gt;" style="text;html=1;strokeColor=none;fillColor=none;align=center;verticalAlign=middle;whiteSpace=wrap;rounded=0;" vertex="1" parent="1">
          <mxGeometry x="779.5" y="950" width="40" height="20" as="geometry" />
        </mxCell>
        <mxCell id="OlVB1A8E8Q_b--ozMuMu-47" value="Нет" style="text;html=1;strokeColor=none;fillColor=none;align=center;verticalAlign=middle;whiteSpace=wrap;rounded=0;" vertex="1" parent="1">
          <mxGeometry x="-80" y="490" width="40" height="20" as="geometry" />
        </mxCell>
        <mxCell id="OlVB1A8E8Q_b--ozMuMu-48" value="Нет" style="text;html=1;strokeColor=none;fillColor=none;align=center;verticalAlign=middle;whiteSpace=wrap;rounded=0;" vertex="1" parent="1">
          <mxGeometry x="700" y="490" width="40" height="20" as="geometry" />
        </mxCell>
        <mxCell id="OlVB1A8E8Q_b--ozMuMu-49" value="" style="endArrow=none;html=1;entryX=1;entryY=0.5;entryDx=0;entryDy=0;exitX=1;exitY=1;exitDx=0;exitDy=0;" edge="1" parent="1" source="OlVB1A8E8Q_b--ozMuMu-43" target="OlVB1A8E8Q_b--ozMuMu-11">
          <mxGeometry width="50" height="50" relative="1" as="geometry">
            <mxPoint x="30" y="960" as="sourcePoint" />
            <mxPoint x="80" y="910" as="targetPoint" />
          </mxGeometry>
        </mxCell>
        <mxCell id="OlVB1A8E8Q_b--ozMuMu-50" value="" style="endArrow=none;html=1;entryX=1;entryY=0.5;entryDx=0;entryDy=0;exitX=0.75;exitY=1;exitDx=0;exitDy=0;" edge="1" parent="1">
          <mxGeometry width="50" height="50" relative="1" as="geometry">
            <mxPoint x="-20" y="969" as="sourcePoint" />
            <mxPoint x="-60" y="969" as="targetPoint" />
            <Array as="points">
              <mxPoint x="-40" y="969" />
            </Array>
          </mxGeometry>
        </mxCell>
        <mxCell id="OlVB1A8E8Q_b--ozMuMu-52" value="" style="endArrow=none;html=1;entryX=1;entryY=0.5;entryDx=0;entryDy=0;exitX=0.75;exitY=1;exitDx=0;exitDy=0;" edge="1" parent="1">
          <mxGeometry width="50" height="50" relative="1" as="geometry">
            <mxPoint x="-40" y="510" as="sourcePoint" />
            <mxPoint x="-80" y="510" as="targetPoint" />
          </mxGeometry>
        </mxCell>
        <mxCell id="OlVB1A8E8Q_b--ozMuMu-56" value="" style="endArrow=none;html=1;entryX=1;entryY=0.5;entryDx=0;entryDy=0;exitX=0.75;exitY=1;exitDx=0;exitDy=0;" edge="1" parent="1">
          <mxGeometry width="50" height="50" relative="1" as="geometry">
            <mxPoint x="740" y="510" as="sourcePoint" />
            <mxPoint x="700" y="510" as="targetPoint" />
            <Array as="points" />
          </mxGeometry>
        </mxCell>
        <mxCell id="OlVB1A8E8Q_b--ozMuMu-57" value="" style="endArrow=none;html=1;entryX=1;entryY=0.5;entryDx=0;entryDy=0;exitX=0.75;exitY=1;exitDx=0;exitDy=0;" edge="1" parent="1">
          <mxGeometry width="50" height="50" relative="1" as="geometry">
            <mxPoint x="540" y="510" as="sourcePoint" />
            <mxPoint x="500" y="510" as="targetPoint" />
            <Array as="points">
              <mxPoint x="520" y="510" />
            </Array>
          </mxGeometry>
        </mxCell>
        <mxCell id="OlVB1A8E8Q_b--ozMuMu-58" value="" style="endArrow=none;html=1;entryX=1;entryY=0.5;entryDx=0;entryDy=0;exitX=0.75;exitY=1;exitDx=0;exitDy=0;" edge="1" parent="1">
          <mxGeometry width="50" height="50" relative="1" as="geometry">
            <mxPoint x="1019.5" y="970" as="sourcePoint" />
            <mxPoint x="979.5" y="970" as="targetPoint" />
            <Array as="points">
              <mxPoint x="999.5" y="970" />
            </Array>
          </mxGeometry>
        </mxCell>
        <mxCell id="OlVB1A8E8Q_b--ozMuMu-59" value="" style="endArrow=none;html=1;entryX=1;entryY=0.5;entryDx=0;entryDy=0;exitX=0.75;exitY=1;exitDx=0;exitDy=0;" edge="1" parent="1">
          <mxGeometry width="50" height="50" relative="1" as="geometry">
            <mxPoint x="819.5" y="969" as="sourcePoint" />
            <mxPoint x="779.5" y="969" as="targetPoint" />
            <Array as="points">
              <mxPoint x="799.5" y="969" />
            </Array>
          </mxGeometry>
        </mxCell>
        <mxCell id="OlVB1A8E8Q_b--ozMuMu-60" value="" style="endArrow=none;html=1;entryX=1;entryY=0.5;entryDx=0;entryDy=0;exitX=0.75;exitY=1;exitDx=0;exitDy=0;" edge="1" parent="1">
          <mxGeometry width="50" height="50" relative="1" as="geometry">
            <mxPoint x="-240" y="509" as="sourcePoint" />
            <mxPoint x="-280" y="509" as="targetPoint" />
            <Array as="points">
              <mxPoint x="-260" y="509" />
            </Array>
          </mxGeometry>
        </mxCell>
        <mxCell id="OlVB1A8E8Q_b--ozMuMu-61" value="" style="endArrow=classic;html=1;exitX=1;exitY=1;exitDx=0;exitDy=0;" edge="1" parent="1" source="OlVB1A8E8Q_b--ozMuMu-47">
          <mxGeometry width="50" height="50" relative="1" as="geometry">
            <mxPoint x="30" y="600" as="sourcePoint" />
            <mxPoint x="-40" y="630" as="targetPoint" />
          </mxGeometry>
        </mxCell>
        <mxCell id="OlVB1A8E8Q_b--ozMuMu-62" value="" style="endArrow=classic;html=1;exitX=1;exitY=1;exitDx=0;exitDy=0;" edge="1" parent="1">
          <mxGeometry width="50" height="50" relative="1" as="geometry">
            <mxPoint x="500" y="510" as="sourcePoint" />
            <mxPoint x="500" y="630" as="targetPoint" />
          </mxGeometry>
        </mxCell>
        <mxCell id="OlVB1A8E8Q_b--ozMuMu-63" value="" style="endArrow=classic;html=1;exitX=1;exitY=1;exitDx=0;exitDy=0;" edge="1" parent="1">
          <mxGeometry width="50" height="50" relative="1" as="geometry">
            <mxPoint x="180" y="970" as="sourcePoint" />
            <mxPoint x="180" y="1090" as="targetPoint" />
          </mxGeometry>
        </mxCell>
        <mxCell id="OlVB1A8E8Q_b--ozMuMu-64" value="" style="endArrow=classic;html=1;exitX=1;exitY=1;exitDx=0;exitDy=0;" edge="1" parent="1">
          <mxGeometry width="50" height="50" relative="1" as="geometry">
            <mxPoint x="-60" y="970" as="sourcePoint" />
            <mxPoint x="-60" y="1090" as="targetPoint" />
          </mxGeometry>
        </mxCell>
        <mxCell id="OlVB1A8E8Q_b--ozMuMu-65" value="" style="endArrow=classic;html=1;exitX=1;exitY=1;exitDx=0;exitDy=0;" edge="1" parent="1">
          <mxGeometry width="50" height="50" relative="1" as="geometry">
            <mxPoint x="-280" y="510" as="sourcePoint" />
            <mxPoint x="-280" y="630" as="targetPoint" />
          </mxGeometry>
        </mxCell>
        <mxCell id="OlVB1A8E8Q_b--ozMuMu-66" value="" style="endArrow=classic;html=1;exitX=1;exitY=1;exitDx=0;exitDy=0;" edge="1" parent="1">
          <mxGeometry width="50" height="50" relative="1" as="geometry">
            <mxPoint x="-40" y="510" as="sourcePoint" />
            <mxPoint x="-40" y="630" as="targetPoint" />
          </mxGeometry>
        </mxCell>
        <mxCell id="OlVB1A8E8Q_b--ozMuMu-67" value="" style="endArrow=classic;html=1;exitX=1;exitY=1;exitDx=0;exitDy=0;" edge="1" parent="1">
          <mxGeometry width="50" height="50" relative="1" as="geometry">
            <mxPoint x="779.5" y="970" as="sourcePoint" />
            <mxPoint x="779.5" y="1090" as="targetPoint" />
          </mxGeometry>
        </mxCell>
        <mxCell id="OlVB1A8E8Q_b--ozMuMu-68" value="" style="endArrow=classic;html=1;exitX=1;exitY=1;exitDx=0;exitDy=0;" edge="1" parent="1">
          <mxGeometry width="50" height="50" relative="1" as="geometry">
            <mxPoint x="740" y="510" as="sourcePoint" />
            <mxPoint x="740" y="630" as="targetPoint" />
          </mxGeometry>
        </mxCell>
        <mxCell id="OlVB1A8E8Q_b--ozMuMu-69" value="" style="endArrow=classic;html=1;exitX=1;exitY=1;exitDx=0;exitDy=0;" edge="1" parent="1">
          <mxGeometry width="50" height="50" relative="1" as="geometry">
            <mxPoint x="1019.5" y="970" as="sourcePoint" />
            <mxPoint x="1019.5" y="1090" as="targetPoint" />
          </mxGeometry>
        </mxCell>
        <mxCell id="OlVB1A8E8Q_b--ozMuMu-73" value="" style="rounded=0;whiteSpace=wrap;html=1;" vertex="1" parent="1">
          <mxGeometry x="-340" y="630" width="120" height="60" as="geometry" />
        </mxCell>
        <mxCell id="OlVB1A8E8Q_b--ozMuMu-74" value="&#xa;&#xa;&lt;span style=&quot;color: rgb(0, 0, 0); font-family: helvetica; font-size: 12px; font-style: normal; font-weight: 400; letter-spacing: normal; text-align: center; text-indent: 0px; text-transform: none; word-spacing: 0px; background-color: rgb(248, 249, 250); display: inline; float: none;&quot;&gt;Экспорт данных, сформированных исходя из заданных параметров&lt;/span&gt;&#xa;&#xa;" style="rounded=0;whiteSpace=wrap;html=1;" vertex="1" parent="1">
          <mxGeometry x="-120" y="1090" width="120" height="60" as="geometry" />
        </mxCell>
        <mxCell id="OlVB1A8E8Q_b--ozMuMu-75" value="&#xa;&#xa;&lt;span style=&quot;color: rgb(0, 0, 0); font-family: helvetica; font-size: 12px; font-style: normal; font-weight: 400; letter-spacing: normal; text-align: center; text-indent: 0px; text-transform: none; word-spacing: 0px; background-color: rgb(248, 249, 250); display: inline; float: none;&quot;&gt;Экспорт данных, сформированных исходя из заданных параметров&lt;/span&gt;&#xa;&#xa;" style="rounded=0;whiteSpace=wrap;html=1;" vertex="1" parent="1">
          <mxGeometry x="-100" y="630" width="120" height="60" as="geometry" />
        </mxCell>
        <mxCell id="OlVB1A8E8Q_b--ozMuMu-76" value="Экспорт данных, сформированных исходя из заданных параметров" style="rounded=0;whiteSpace=wrap;html=1;" vertex="1" parent="1">
          <mxGeometry x="-340" y="630" width="120" height="60" as="geometry" />
        </mxCell>
        <mxCell id="OlVB1A8E8Q_b--ozMuMu-77" value="&#xa;&#xa;&lt;span style=&quot;color: rgb(0, 0, 0); font-family: helvetica; font-size: 12px; font-style: normal; font-weight: 400; letter-spacing: normal; text-align: center; text-indent: 0px; text-transform: none; word-spacing: 0px; background-color: rgb(248, 249, 250); display: inline; float: none;&quot;&gt;Экспорт данных, сформированных исходя из заданных параметров&lt;/span&gt;&#xa;&#xa;" style="rounded=0;whiteSpace=wrap;html=1;" vertex="1" parent="1">
          <mxGeometry x="440" y="630" width="120" height="60" as="geometry" />
        </mxCell>
        <mxCell id="OlVB1A8E8Q_b--ozMuMu-78" value="&#xa;&#xa;&lt;span style=&quot;color: rgb(0, 0, 0); font-family: helvetica; font-size: 12px; font-style: normal; font-weight: 400; letter-spacing: normal; text-align: center; text-indent: 0px; text-transform: none; word-spacing: 0px; background-color: rgb(248, 249, 250); display: inline; float: none;&quot;&gt;Экспорт данных, сформированных исходя из заданных параметров&lt;/span&gt;&#xa;&#xa;" style="rounded=0;whiteSpace=wrap;html=1;" vertex="1" parent="1">
          <mxGeometry x="120" y="1090" width="120" height="60" as="geometry" />
        </mxCell>
        <mxCell id="OlVB1A8E8Q_b--ozMuMu-79" value="&#xa;&#xa;&lt;span style=&quot;color: rgb(0, 0, 0); font-family: helvetica; font-size: 12px; font-style: normal; font-weight: 400; letter-spacing: normal; text-align: center; text-indent: 0px; text-transform: none; word-spacing: 0px; background-color: rgb(248, 249, 250); display: inline; float: none;&quot;&gt;Экспорт данных, сформированных исходя из заданных параметров&lt;/span&gt;&#xa;&#xa;" style="rounded=0;whiteSpace=wrap;html=1;" vertex="1" parent="1">
          <mxGeometry x="719.5" y="1090" width="120" height="60" as="geometry" />
        </mxCell>
        <mxCell id="OlVB1A8E8Q_b--ozMuMu-80" value="&#xa;&#xa;&lt;span style=&quot;color: rgb(0, 0, 0); font-family: helvetica; font-size: 12px; font-style: normal; font-weight: 400; letter-spacing: normal; text-align: center; text-indent: 0px; text-transform: none; word-spacing: 0px; background-color: rgb(248, 249, 250); display: inline; float: none;&quot;&gt;Экспорт данных, сформированных исходя из заданных параметров&lt;/span&gt;&#xa;&#xa;" style="rounded=0;whiteSpace=wrap;html=1;" vertex="1" parent="1">
          <mxGeometry x="680" y="630" width="120" height="60" as="geometry" />
        </mxCell>
        <mxCell id="OlVB1A8E8Q_b--ozMuMu-81" value="&#xa;&#xa;&lt;span style=&quot;color: rgb(0, 0, 0); font-family: helvetica; font-size: 12px; font-style: normal; font-weight: 400; letter-spacing: normal; text-align: center; text-indent: 0px; text-transform: none; word-spacing: 0px; background-color: rgb(248, 249, 250); display: inline; float: none;&quot;&gt;Экспорт данных, сформированных исходя из заданных параметров&lt;/span&gt;&#xa;&#xa;" style="rounded=0;whiteSpace=wrap;html=1;" vertex="1" parent="1">
          <mxGeometry x="960.5" y="1090" width="120" height="60" as="geometry" />
        </mxCell>
        <mxCell id="OlVB1A8E8Q_b--ozMuMu-83" style="edgeStyle=orthogonalEdgeStyle;rounded=0;orthogonalLoop=1;jettySize=auto;html=1;exitX=0.5;exitY=1;exitDx=0;exitDy=0;" edge="1" parent="1" source="OlVB1A8E8Q_b--ozMuMu-82" target="OlVB1A8E8Q_b--ozMuMu-86">
          <mxGeometry relative="1" as="geometry">
            <mxPoint x="220" y="560" as="targetPoint" />
          </mxGeometry>
        </mxCell>
        <mxCell id="OlVB1A8E8Q_b--ozMuMu-82" value="Принимаем от формы параметры с указанием периода" style="rounded=0;whiteSpace=wrap;html=1;" vertex="1" parent="1">
          <mxGeometry x="160" y="470" width="120" height="60" as="geometry" />
        </mxCell>
        <mxCell id="OlVB1A8E8Q_b--ozMuMu-85" style="edgeStyle=orthogonalEdgeStyle;rounded=0;orthogonalLoop=1;jettySize=auto;html=1;exitX=0.5;exitY=1;exitDx=0;exitDy=0;" edge="1" parent="1" source="OlVB1A8E8Q_b--ozMuMu-84" target="OlVB1A8E8Q_b--ozMuMu-88">
          <mxGeometry relative="1" as="geometry">
            <mxPoint x="1060" y="560" as="targetPoint" />
          </mxGeometry>
        </mxCell>
        <mxCell id="OlVB1A8E8Q_b--ozMuMu-84" value="&lt;span&gt;Принимаем от формы параметры с указанием периода&lt;/span&gt;" style="rounded=0;whiteSpace=wrap;html=1;" vertex="1" parent="1">
          <mxGeometry x="1000" y="470" width="120" height="60" as="geometry" />
        </mxCell>
        <mxCell id="OlVB1A8E8Q_b--ozMuMu-87" style="edgeStyle=orthogonalEdgeStyle;rounded=0;orthogonalLoop=1;jettySize=auto;html=1;exitX=0.5;exitY=1;exitDx=0;exitDy=0;" edge="1" parent="1" source="OlVB1A8E8Q_b--ozMuMu-86">
          <mxGeometry relative="1" as="geometry">
            <mxPoint x="220" y="690" as="targetPoint" />
          </mxGeometry>
        </mxCell>
        <mxCell id="OlVB1A8E8Q_b--ozMuMu-86" value="Проверка и обработка случая, когда не указан День или Час" style="shape=process;whiteSpace=wrap;html=1;backgroundOutline=1;" vertex="1" parent="1">
          <mxGeometry x="120" y="580" width="200" height="60" as="geometry" />
        </mxCell>
        <mxCell id="OlVB1A8E8Q_b--ozMuMu-89" style="edgeStyle=orthogonalEdgeStyle;rounded=0;orthogonalLoop=1;jettySize=auto;html=1;exitX=0.5;exitY=1;exitDx=0;exitDy=0;entryX=0.5;entryY=0;entryDx=0;entryDy=0;" edge="1" parent="1" source="OlVB1A8E8Q_b--ozMuMu-88" target="OlVB1A8E8Q_b--ozMuMu-132">
          <mxGeometry relative="1" as="geometry">
            <mxPoint x="1060" y="700" as="targetPoint" />
          </mxGeometry>
        </mxCell>
        <mxCell id="OlVB1A8E8Q_b--ozMuMu-88" value="&lt;span&gt;Проверка и обработка случая, когда не указан День или Час&lt;/span&gt;" style="shape=process;whiteSpace=wrap;html=1;backgroundOutline=1;" vertex="1" parent="1">
          <mxGeometry x="960" y="580" width="200" height="60" as="geometry" />
        </mxCell>
        <mxCell id="OlVB1A8E8Q_b--ozMuMu-94" value="Выход" style="rounded=1;whiteSpace=wrap;html=1;" vertex="1" parent="1">
          <mxGeometry x="357" y="1350" width="126" height="30" as="geometry" />
        </mxCell>
        <mxCell id="OlVB1A8E8Q_b--ozMuMu-95" value="" style="endArrow=none;html=1;exitX=0.5;exitY=1;exitDx=0;exitDy=0;" edge="1" parent="1" source="OlVB1A8E8Q_b--ozMuMu-76">
          <mxGeometry width="50" height="50" relative="1" as="geometry">
            <mxPoint x="400" y="790" as="sourcePoint" />
            <mxPoint x="-280" y="790" as="targetPoint" />
            <Array as="points" />
          </mxGeometry>
        </mxCell>
        <mxCell id="OlVB1A8E8Q_b--ozMuMu-96" value="" style="endArrow=none;html=1;exitX=0.5;exitY=1;exitDx=0;exitDy=0;" edge="1" parent="1">
          <mxGeometry width="50" height="50" relative="1" as="geometry">
            <mxPoint x="499.16999999999996" y="690" as="sourcePoint" />
            <mxPoint x="499.16999999999996" y="790" as="targetPoint" />
            <Array as="points" />
          </mxGeometry>
        </mxCell>
        <mxCell id="OlVB1A8E8Q_b--ozMuMu-97" value="" style="endArrow=none;html=1;exitX=0.5;exitY=1;exitDx=0;exitDy=0;" edge="1" parent="1">
          <mxGeometry width="50" height="50" relative="1" as="geometry">
            <mxPoint x="180" y="1150" as="sourcePoint" />
            <mxPoint x="180" y="1250" as="targetPoint" />
            <Array as="points" />
          </mxGeometry>
        </mxCell>
        <mxCell id="OlVB1A8E8Q_b--ozMuMu-98" value="" style="endArrow=none;html=1;exitX=0.5;exitY=1;exitDx=0;exitDy=0;" edge="1" parent="1">
          <mxGeometry width="50" height="50" relative="1" as="geometry">
            <mxPoint x="-60.829999999999984" y="1150" as="sourcePoint" />
            <mxPoint x="-60.829999999999984" y="1250" as="targetPoint" />
            <Array as="points" />
          </mxGeometry>
        </mxCell>
        <mxCell id="OlVB1A8E8Q_b--ozMuMu-99" value="" style="endArrow=none;html=1;exitX=0.5;exitY=1;exitDx=0;exitDy=0;" edge="1" parent="1">
          <mxGeometry width="50" height="50" relative="1" as="geometry">
            <mxPoint x="-40" y="690" as="sourcePoint" />
            <mxPoint x="-40" y="790" as="targetPoint" />
            <Array as="points" />
          </mxGeometry>
        </mxCell>
        <mxCell id="OlVB1A8E8Q_b--ozMuMu-103" value="" style="endArrow=none;html=1;exitX=0.5;exitY=1;exitDx=0;exitDy=0;" edge="1" parent="1">
          <mxGeometry width="50" height="50" relative="1" as="geometry">
            <mxPoint x="1019.6700000000001" y="1150" as="sourcePoint" />
            <mxPoint x="1019.6700000000001" y="1250" as="targetPoint" />
            <Array as="points" />
          </mxGeometry>
        </mxCell>
        <mxCell id="OlVB1A8E8Q_b--ozMuMu-104" value="" style="endArrow=none;html=1;exitX=0.5;exitY=1;exitDx=0;exitDy=0;" edge="1" parent="1">
          <mxGeometry width="50" height="50" relative="1" as="geometry">
            <mxPoint x="778.6700000000001" y="1150" as="sourcePoint" />
            <mxPoint x="778.6700000000001" y="1250" as="targetPoint" />
            <Array as="points" />
          </mxGeometry>
        </mxCell>
        <mxCell id="OlVB1A8E8Q_b--ozMuMu-105" value="" style="endArrow=none;html=1;exitX=0.5;exitY=1;exitDx=0;exitDy=0;" edge="1" parent="1">
          <mxGeometry width="50" height="50" relative="1" as="geometry">
            <mxPoint x="740.0000000000001" y="690" as="sourcePoint" />
            <mxPoint x="740.0000000000001" y="790" as="targetPoint" />
            <Array as="points" />
          </mxGeometry>
        </mxCell>
        <mxCell id="OlVB1A8E8Q_b--ozMuMu-106" value="" style="endArrow=classic;html=1;" edge="1" parent="1">
          <mxGeometry width="50" height="50" relative="1" as="geometry">
            <mxPoint x="500" y="790" as="sourcePoint" />
            <mxPoint x="620" y="790" as="targetPoint" />
            <Array as="points">
              <mxPoint x="540" y="790" />
            </Array>
          </mxGeometry>
        </mxCell>
        <mxCell id="OlVB1A8E8Q_b--ozMuMu-107" value="" style="endArrow=classic;html=1;" edge="1" parent="1">
          <mxGeometry width="50" height="50" relative="1" as="geometry">
            <mxPoint x="740" y="790" as="sourcePoint" />
            <mxPoint x="620" y="790" as="targetPoint" />
          </mxGeometry>
        </mxCell>
        <mxCell id="OlVB1A8E8Q_b--ozMuMu-108" value="" style="endArrow=classic;html=1;" edge="1" parent="1">
          <mxGeometry width="50" height="50" relative="1" as="geometry">
            <mxPoint x="180" y="1250" as="sourcePoint" />
            <mxPoint x="60" y="1250" as="targetPoint" />
          </mxGeometry>
        </mxCell>
        <mxCell id="OlVB1A8E8Q_b--ozMuMu-109" value="" style="endArrow=classic;html=1;" edge="1" parent="1">
          <mxGeometry width="50" height="50" relative="1" as="geometry">
            <mxPoint x="-40" y="790" as="sourcePoint" />
            <mxPoint x="-160" y="790" as="targetPoint" />
            <Array as="points">
              <mxPoint x="-110" y="790" />
              <mxPoint x="-130" y="790" />
            </Array>
          </mxGeometry>
        </mxCell>
        <mxCell id="OlVB1A8E8Q_b--ozMuMu-110" value="" style="endArrow=classic;html=1;" edge="1" parent="1">
          <mxGeometry width="50" height="50" relative="1" as="geometry">
            <mxPoint x="1019.5" y="1250" as="sourcePoint" />
            <mxPoint x="899.5" y="1250" as="targetPoint" />
          </mxGeometry>
        </mxCell>
        <mxCell id="OlVB1A8E8Q_b--ozMuMu-111" value="" style="endArrow=classic;html=1;" edge="1" parent="1">
          <mxGeometry width="50" height="50" relative="1" as="geometry">
            <mxPoint x="-60" y="1250" as="sourcePoint" />
            <mxPoint x="60" y="1250" as="targetPoint" />
          </mxGeometry>
        </mxCell>
        <mxCell id="OlVB1A8E8Q_b--ozMuMu-112" value="" style="endArrow=classic;html=1;" edge="1" parent="1">
          <mxGeometry width="50" height="50" relative="1" as="geometry">
            <mxPoint x="-280" y="790" as="sourcePoint" />
            <mxPoint x="-160" y="790" as="targetPoint" />
          </mxGeometry>
        </mxCell>
        <mxCell id="OlVB1A8E8Q_b--ozMuMu-113" value="" style="endArrow=classic;html=1;" edge="1" parent="1">
          <mxGeometry width="50" height="50" relative="1" as="geometry">
            <mxPoint x="779.5" y="1250" as="sourcePoint" />
            <mxPoint x="899.5" y="1250" as="targetPoint" />
          </mxGeometry>
        </mxCell>
        <mxCell id="OlVB1A8E8Q_b--ozMuMu-117" value="" style="endArrow=none;html=1;" edge="1" parent="1">
          <mxGeometry width="50" height="50" relative="1" as="geometry">
            <mxPoint x="-160" y="1311" as="sourcePoint" />
            <mxPoint x="-160" y="790" as="targetPoint" />
          </mxGeometry>
        </mxCell>
        <mxCell id="OlVB1A8E8Q_b--ozMuMu-119" value="" style="endArrow=classic;html=1;" edge="1" parent="1">
          <mxGeometry width="50" height="50" relative="1" as="geometry">
            <mxPoint x="-160" y="1310" as="sourcePoint" />
            <mxPoint x="420" y="1310" as="targetPoint" />
          </mxGeometry>
        </mxCell>
        <mxCell id="OlVB1A8E8Q_b--ozMuMu-121" value="" style="endArrow=classic;html=1;" edge="1" parent="1">
          <mxGeometry width="50" height="50" relative="1" as="geometry">
            <mxPoint x="58" y="1250" as="sourcePoint" />
            <mxPoint x="58" y="1310" as="targetPoint" />
          </mxGeometry>
        </mxCell>
        <mxCell id="OlVB1A8E8Q_b--ozMuMu-122" value="" style="endArrow=classic;html=1;" edge="1" parent="1">
          <mxGeometry width="50" height="50" relative="1" as="geometry">
            <mxPoint x="620" y="790" as="sourcePoint" />
            <mxPoint x="620" y="1311" as="targetPoint" />
          </mxGeometry>
        </mxCell>
        <mxCell id="OlVB1A8E8Q_b--ozMuMu-123" value="" style="endArrow=classic;html=1;" edge="1" parent="1">
          <mxGeometry width="50" height="50" relative="1" as="geometry">
            <mxPoint x="900" y="1251" as="sourcePoint" />
            <mxPoint x="900" y="1311" as="targetPoint" />
          </mxGeometry>
        </mxCell>
        <mxCell id="OlVB1A8E8Q_b--ozMuMu-124" value="" style="endArrow=classic;html=1;" edge="1" parent="1">
          <mxGeometry width="50" height="50" relative="1" as="geometry">
            <mxPoint x="420" y="1310" as="sourcePoint" />
            <mxPoint x="420" y="1350" as="targetPoint" />
            <Array as="points">
              <mxPoint x="420" y="1320" />
              <mxPoint x="420" y="1330" />
            </Array>
          </mxGeometry>
        </mxCell>
        <mxCell id="OlVB1A8E8Q_b--ozMuMu-126" value="Подготовка входных массивов" style="rounded=0;whiteSpace=wrap;html=1;" vertex="1" parent="1">
          <mxGeometry x="720" y="240" width="120" height="60" as="geometry" />
        </mxCell>
        <mxCell id="OlVB1A8E8Q_b--ozMuMu-127" value="Подготовка входных массивов" style="rounded=0;whiteSpace=wrap;html=1;" vertex="1" parent="1">
          <mxGeometry y="250" width="120" height="60" as="geometry" />
        </mxCell>
        <mxCell id="OlVB1A8E8Q_b--ozMuMu-128" value="" style="endArrow=classic;html=1;exitX=0.5;exitY=1;exitDx=0;exitDy=0;" edge="1" parent="1" source="OlVB1A8E8Q_b--ozMuMu-127">
          <mxGeometry width="50" height="50" relative="1" as="geometry">
            <mxPoint x="580" y="660" as="sourcePoint" />
            <mxPoint x="60" y="350" as="targetPoint" />
          </mxGeometry>
        </mxCell>
        <mxCell id="OlVB1A8E8Q_b--ozMuMu-129" value="" style="endArrow=classic;html=1;exitX=0.5;exitY=1;exitDx=0;exitDy=0;entryX=0.5;entryY=0;entryDx=0;entryDy=0;" edge="1" parent="1" source="OlVB1A8E8Q_b--ozMuMu-126" target="OlVB1A8E8Q_b--ozMuMu-6">
          <mxGeometry width="50" height="50" relative="1" as="geometry">
            <mxPoint x="70" y="320" as="sourcePoint" />
            <mxPoint x="70" y="360" as="targetPoint" />
          </mxGeometry>
        </mxCell>
        <mxCell id="OlVB1A8E8Q_b--ozMuMu-139" style="edgeStyle=orthogonalEdgeStyle;rounded=0;orthogonalLoop=1;jettySize=auto;html=1;exitX=0.5;exitY=1;exitDx=0;exitDy=0;entryX=0.5;entryY=0;entryDx=0;entryDy=0;" edge="1" parent="1" source="OlVB1A8E8Q_b--ozMuMu-130" target="OlVB1A8E8Q_b--ozMuMu-134">
          <mxGeometry relative="1" as="geometry" />
        </mxCell>
        <mxCell id="OlVB1A8E8Q_b--ozMuMu-130" value="Проверка корректности задания временного интервала" style="shape=process;whiteSpace=wrap;html=1;backgroundOutline=1;" vertex="1" parent="1">
          <mxGeometry x="120" y="690" width="200" height="60" as="geometry" />
        </mxCell>
        <mxCell id="OlVB1A8E8Q_b--ozMuMu-151" style="edgeStyle=orthogonalEdgeStyle;rounded=0;orthogonalLoop=1;jettySize=auto;html=1;exitX=0.5;exitY=1;exitDx=0;exitDy=0;entryX=0.5;entryY=0;entryDx=0;entryDy=0;" edge="1" parent="1" source="OlVB1A8E8Q_b--ozMuMu-132" target="OlVB1A8E8Q_b--ozMuMu-145">
          <mxGeometry relative="1" as="geometry" />
        </mxCell>
        <mxCell id="OlVB1A8E8Q_b--ozMuMu-132" value="Проверка корректности задания временного интервала" style="shape=process;whiteSpace=wrap;html=1;backgroundOutline=1;" vertex="1" parent="1">
          <mxGeometry x="960" y="690" width="200" height="60" as="geometry" />
        </mxCell>
        <mxCell id="OlVB1A8E8Q_b--ozMuMu-134" value="Данные корректны?" style="rhombus;whiteSpace=wrap;html=1;" vertex="1" parent="1">
          <mxGeometry x="130" y="780" width="180" height="80" as="geometry" />
        </mxCell>
        <mxCell id="OlVB1A8E8Q_b--ozMuMu-135" value="" style="endArrow=none;html=1;entryX=1;entryY=0.5;entryDx=0;entryDy=0;" edge="1" parent="1" target="OlVB1A8E8Q_b--ozMuMu-134">
          <mxGeometry width="50" height="50" relative="1" as="geometry">
            <mxPoint x="420" y="820" as="sourcePoint" />
            <mxPoint x="630" y="690" as="targetPoint" />
            <Array as="points">
              <mxPoint x="360" y="820" />
            </Array>
          </mxGeometry>
        </mxCell>
        <mxCell id="OlVB1A8E8Q_b--ozMuMu-136" value="" style="endArrow=none;html=1;entryX=0;entryY=0.5;entryDx=0;entryDy=0;" edge="1" parent="1" target="OlVB1A8E8Q_b--ozMuMu-134">
          <mxGeometry width="50" height="50" relative="1" as="geometry">
            <mxPoint x="60" y="820" as="sourcePoint" />
            <mxPoint x="630" y="690" as="targetPoint" />
          </mxGeometry>
        </mxCell>
        <mxCell id="OlVB1A8E8Q_b--ozMuMu-137" value="" style="endArrow=classic;html=1;entryX=0.5;entryY=0;entryDx=0;entryDy=0;" edge="1" parent="1" target="OlVB1A8E8Q_b--ozMuMu-11">
          <mxGeometry width="50" height="50" relative="1" as="geometry">
            <mxPoint x="60" y="820" as="sourcePoint" />
            <mxPoint x="630" y="1090" as="targetPoint" />
          </mxGeometry>
        </mxCell>
        <mxCell id="OlVB1A8E8Q_b--ozMuMu-140" value="Да&lt;span style=&quot;color: rgba(0 , 0 , 0 , 0) ; font-family: monospace ; font-size: 0px&quot;&gt;%3CmxGraphModel%3E%3Croot%3E%3CmxCell%20id%3D%220%22%2F%3E%3CmxCell%20id%3D%221%22%20parent%3D%220%22%2F%3E%3CmxCell%20id%3D%222%22%20value%3D%22%22%20style%3D%22endArrow%3Dclassic%3Bhtml%3D1%3BentryX%3D0.5%3BentryY%3D0%3BentryDx%3D0%3BentryDy%3D0%3B%22%20edge%3D%221%22%20parent%3D%221%22%3E%3CmxGeometry%20width%3D%2250%22%20height%3D%2250%22%20relative%3D%221%22%20as%3D%22geometry%22%3E%3CmxPoint%20x%3D%22-40%22%20y%3D%22280%22%20as%3D%22sourcePoint%22%2F%3E%3CmxPoint%20x%3D%22-40%22%20y%3D%22360%22%20as%3D%22targetPoint%22%2F%3E%3C%2FmxGeometry%3E%3C%2FmxCell%3E%3C%2Froot%3E%3C%2FmxGraphModel%3E&lt;/span&gt;&lt;span style=&quot;color: rgba(0 , 0 , 0 , 0) ; font-family: monospace ; font-size: 0px&quot;&gt;%3CmxGraphModel%3E%3Croot%3E%3CmxCell%20id%3D%220%22%2F%3E%3CmxCell%20id%3D%221%22%20parent%3D%220%22%2F%3E%3CmxCell%20id%3D%222%22%20value%3D%22%22%20style%3D%22endArrow%3Dclassic%3Bhtml%3D1%3BentryX%3D0.5%3BentryY%3D0%3BentryDx%3D0%3BentryDy%3D0%3B%22%20edge%3D%221%22%20parent%3D%221%22%3E%3CmxGeometry%20width%3D%2250%22%20height%3D%2250%22%20relative%3D%221%22%20as%3D%22geometry%22%3E%3CmxPoint%20x%3D%22-40%22%20y%3D%22280%22%20as%3D%22sourcePoint%22%2F%3E%3CmxPoint%20x%3D%22-40%22%20y%3D%22360%22%20as%3D%22targetPoint%22%2F%3E%3C%2FmxGeometry%3E%3C%2FmxCell%3E%3C%2Froot%3E%3C%2FmxGraphModel%3E&lt;/span&gt;" style="text;html=1;strokeColor=none;fillColor=none;align=center;verticalAlign=middle;whiteSpace=wrap;rounded=0;" vertex="1" parent="1">
          <mxGeometry x="100" y="800" width="40" height="20" as="geometry" />
        </mxCell>
        <mxCell id="OlVB1A8E8Q_b--ozMuMu-141" value="Нет" style="text;html=1;strokeColor=none;fillColor=none;align=center;verticalAlign=middle;whiteSpace=wrap;rounded=0;" vertex="1" parent="1">
          <mxGeometry x="284" y="800" width="70" height="20" as="geometry" />
        </mxCell>
        <mxCell id="OlVB1A8E8Q_b--ozMuMu-142" value="Вывод шаблона с сообщением об ошибке" style="shape=parallelogram;perimeter=parallelogramPerimeter;whiteSpace=wrap;html=1;fixedSize=1;" vertex="1" parent="1">
          <mxGeometry x="306.5" y="990" width="227" height="60" as="geometry" />
        </mxCell>
        <mxCell id="OlVB1A8E8Q_b--ozMuMu-143" value="" style="endArrow=classic;html=1;entryX=0.5;entryY=0;entryDx=0;entryDy=0;" edge="1" parent="1" target="OlVB1A8E8Q_b--ozMuMu-142">
          <mxGeometry width="50" height="50" relative="1" as="geometry">
            <mxPoint x="420" y="820" as="sourcePoint" />
            <mxPoint x="630" y="1080" as="targetPoint" />
          </mxGeometry>
        </mxCell>
        <mxCell id="OlVB1A8E8Q_b--ozMuMu-144" value="" style="endArrow=classic;html=1;exitX=0.5;exitY=1;exitDx=0;exitDy=0;" edge="1" parent="1" source="OlVB1A8E8Q_b--ozMuMu-142">
          <mxGeometry width="50" height="50" relative="1" as="geometry">
            <mxPoint x="580" y="1130" as="sourcePoint" />
            <mxPoint x="420" y="1310" as="targetPoint" />
          </mxGeometry>
        </mxCell>
        <mxCell id="OlVB1A8E8Q_b--ozMuMu-145" value="Данные корректны?" style="rhombus;whiteSpace=wrap;html=1;" vertex="1" parent="1">
          <mxGeometry x="970" y="780" width="180" height="80" as="geometry" />
        </mxCell>
        <mxCell id="OlVB1A8E8Q_b--ozMuMu-146" value="" style="endArrow=none;html=1;entryX=1;entryY=0.5;entryDx=0;entryDy=0;" edge="1" parent="1" target="OlVB1A8E8Q_b--ozMuMu-145">
          <mxGeometry width="50" height="50" relative="1" as="geometry">
            <mxPoint x="1260" y="820" as="sourcePoint" />
            <mxPoint x="1470" y="690" as="targetPoint" />
          </mxGeometry>
        </mxCell>
        <mxCell id="OlVB1A8E8Q_b--ozMuMu-147" value="" style="endArrow=none;html=1;entryX=0;entryY=0.5;entryDx=0;entryDy=0;" edge="1" parent="1" target="OlVB1A8E8Q_b--ozMuMu-145">
          <mxGeometry width="50" height="50" relative="1" as="geometry">
            <mxPoint x="900" y="820" as="sourcePoint" />
            <mxPoint x="1470" y="690" as="targetPoint" />
          </mxGeometry>
        </mxCell>
        <mxCell id="OlVB1A8E8Q_b--ozMuMu-148" value="Да&lt;span style=&quot;color: rgba(0 , 0 , 0 , 0) ; font-family: monospace ; font-size: 0px&quot;&gt;%3CmxGraphModel%3E%3Croot%3E%3CmxCell%20id%3D%220%22%2F%3E%3CmxCell%20id%3D%221%22%20parent%3D%220%22%2F%3E%3CmxCell%20id%3D%222%22%20value%3D%22%22%20style%3D%22endArrow%3Dclassic%3Bhtml%3D1%3BentryX%3D0.5%3BentryY%3D0%3BentryDx%3D0%3BentryDy%3D0%3B%22%20edge%3D%221%22%20parent%3D%221%22%3E%3CmxGeometry%20width%3D%2250%22%20height%3D%2250%22%20relative%3D%221%22%20as%3D%22geometry%22%3E%3CmxPoint%20x%3D%22-40%22%20y%3D%22280%22%20as%3D%22sourcePoint%22%2F%3E%3CmxPoint%20x%3D%22-40%22%20y%3D%22360%22%20as%3D%22targetPoint%22%2F%3E%3C%2FmxGeometry%3E%3C%2FmxCell%3E%3C%2Froot%3E%3C%2FmxGraphModel%3E&lt;/span&gt;&lt;span style=&quot;color: rgba(0 , 0 , 0 , 0) ; font-family: monospace ; font-size: 0px&quot;&gt;%3CmxGraphModel%3E%3Croot%3E%3CmxCell%20id%3D%220%22%2F%3E%3CmxCell%20id%3D%221%22%20parent%3D%220%22%2F%3E%3CmxCell%20id%3D%222%22%20value%3D%22%22%20style%3D%22endArrow%3Dclassic%3Bhtml%3D1%3BentryX%3D0.5%3BentryY%3D0%3BentryDx%3D0%3BentryDy%3D0%3B%22%20edge%3D%221%22%20parent%3D%221%22%3E%3CmxGeometry%20width%3D%2250%22%20height%3D%2250%22%20relative%3D%221%22%20as%3D%22geometry%22%3E%3CmxPoint%20x%3D%22-40%22%20y%3D%22280%22%20as%3D%22sourcePoint%22%2F%3E%3CmxPoint%20x%3D%22-40%22%20y%3D%22360%22%20as%3D%22targetPoint%22%2F%3E%3C%2FmxGeometry%3E%3C%2FmxCell%3E%3C%2Froot%3E%3C%2FmxGraphModel%3E&lt;/span&gt;" style="text;html=1;strokeColor=none;fillColor=none;align=center;verticalAlign=middle;whiteSpace=wrap;rounded=0;" vertex="1" parent="1">
          <mxGeometry x="940" y="800" width="40" height="20" as="geometry" />
        </mxCell>
        <mxCell id="OlVB1A8E8Q_b--ozMuMu-149" value="Нет" style="text;html=1;strokeColor=none;fillColor=none;align=center;verticalAlign=middle;whiteSpace=wrap;rounded=0;" vertex="1" parent="1">
          <mxGeometry x="1124" y="800" width="70" height="20" as="geometry" />
        </mxCell>
        <mxCell id="OlVB1A8E8Q_b--ozMuMu-152" value="" style="endArrow=classic;html=1;entryX=0.5;entryY=0;entryDx=0;entryDy=0;" edge="1" parent="1" target="OlVB1A8E8Q_b--ozMuMu-10">
          <mxGeometry width="50" height="50" relative="1" as="geometry">
            <mxPoint x="900" y="820" as="sourcePoint" />
            <mxPoint x="630" y="1080" as="targetPoint" />
          </mxGeometry>
        </mxCell>
        <mxCell id="OlVB1A8E8Q_b--ozMuMu-154" value="" style="endArrow=classic;html=1;" edge="1" parent="1">
          <mxGeometry width="50" height="50" relative="1" as="geometry">
            <mxPoint x="1260" y="1310" as="sourcePoint" />
            <mxPoint x="420" y="1310" as="targetPoint" />
          </mxGeometry>
        </mxCell>
        <mxCell id="OlVB1A8E8Q_b--ozMuMu-155" value="Вывод шаблона с сообщением об ошибке" style="shape=parallelogram;perimeter=parallelogramPerimeter;whiteSpace=wrap;html=1;fixedSize=1;" vertex="1" parent="1">
          <mxGeometry x="1140" y="990" width="227" height="60" as="geometry" />
        </mxCell>
        <mxCell id="OlVB1A8E8Q_b--ozMuMu-156" value="" style="endArrow=classic;html=1;entryX=0.5;entryY=0;entryDx=0;entryDy=0;" edge="1" parent="1">
          <mxGeometry width="50" height="50" relative="1" as="geometry">
            <mxPoint x="1260" y="820" as="sourcePoint" />
            <mxPoint x="1260" y="990" as="targetPoint" />
          </mxGeometry>
        </mxCell>
        <mxCell id="OlVB1A8E8Q_b--ozMuMu-158" value="" style="endArrow=none;html=1;entryX=0.526;entryY=1.01;entryDx=0;entryDy=0;entryPerimeter=0;" edge="1" parent="1" target="OlVB1A8E8Q_b--ozMuMu-155">
          <mxGeometry width="50" height="50" relative="1" as="geometry">
            <mxPoint x="1260" y="1310" as="sourcePoint" />
            <mxPoint x="630" y="1080" as="targetPoint" />
          </mxGeometry>
        </mxCell>
      </root>
    </mxGraphModel>
  </diagram>
</mxfile>
